# xmcd
#
# Track frame offsets:
#	161
#	14138
#	30054
#	45033
#	62851
#	78752
#	92288
#	110676
#	125574
#	144743
#	163904
#	182050
#
# Disc length: 2658 seconds
#
# Revision: 4
# Processed by: cddbd v1.5.2PL0 Copyright (c) Steve Scherf et al.
# Submitted via: EZCDAudioConverter 8.2.2.1
#
DISCID=930a600c
DTITLE=LEANDRO and LEONARDO - SUCESSOS DE OURO - CD 02 [CD 398420837-2) CHANTECL
DTITLE=ER
DYEAR=1997
DGENRE=SERTANEJO
TTITLE0=NÃO APRENDI DIZER ADEUS (BY GILMAR SINISTRO)
TTITLE1=PAZ NA CAMA (BY GILMAR SINISTRO)
TTITLE2=NÃO OLHE ASSIM (BY GILMAR SINISTRO)
TTITLE3=FIM DE SEMANA SEM VOCÊ (BY GILMAR SINISTRO)
TTITLE4=O QUE EU SINTO É AMOR (BY GILMAR SINISTRO)
TTITLE5=MAIS UMA NOITE SEM VOCÊ (BY GILMAR SINISTRO)
TTITLE6=TEMPORAL DE AMOR (BY GILMAR SINISTRO)
TTITLE7=MEXE MEXE (BY GILMAR SINISTRO)
TTITLE8=DOR DE AMOR NÃO TEM JEITO (BY GILMAR SINISTRO)
TTITLE9=EU JURO (I SWEAR) (BY GILMAR SINISTRO)
TTITLE10=FESTA DE RODEIO (BY GILMAR SINISTRO)
TTITLE11=DOCE MISTÉRIO (BY GILMAR SINISTRO)
EXTD=
EXTT0=
EXTT1=
EXTT2=
EXTT3=
EXTT4=
EXTT5=
EXTT6=
EXTT7=
EXTT8=
EXTT9=
EXTT10=
EXTT11=
PLAYORDER=
